<?xml version="1.0" encoding="utf-8"?>
<svg id="master-artboard" viewBox="0 0 1319.8404541015625 193.5079345703125" version="1.1" xmlns="http://www.w3.org/2000/svg" x="0px" y="0px" style="enable-background:new 0 0 1400 980;" width="100vw" height="auto"><defs><path id="text-path-0" d="M 237.81668090820312 343.2077331542969 A 100 17 0 0 1 633.394775390625 343.2077331542969 A 100 17 0 0 1 237.81668090820312 343.2077331542969 Z" style="fill: none; stroke: red; stroke-width: 2;"/></defs><g transform="matrix(3.1936113834381104, 0, 0, 3.1936113834381104, -39.498849925254945, -73.37255859375)"><rect id="ee-background" x="0" y="0" width="1319.8404541015625" height="193.5079345703125" style="fill: white; fill-opacity: 0; pointer-events: none;"/><path d="M 240.92941284179688 325.05572509765625 C 244.50050354003906 326.4854736328125 247.5362548828125 326.6650085449219 250.0366668701172 325.5943298339844 C 251.32977294921875 325.0406188964844 252.23558044433594 324.29376220703125 252.7541046142578 323.3537902832031 C 253.27523803710938 322.419921875 253.3311309814453 321.4749755859375 252.9217529296875 320.5189208984375 C 252.5123748779297 319.5628967285156 251.69715881347656 318.9546813964844 250.47608947753906 318.6943054199219 C 249.24888610839844 318.4365539550781 247.8596954345703 318.34246826171875 246.3085174560547 318.4119873046875 C 244.75381469726562 318.49029541015625 243.17945861816406 318.4972229003906 241.58541870117188 318.4328308105469 C 239.98875427246094 318.3623046875 238.46966552734375 317.939453125 237.02816772460938 317.1642761230469 C 235.58053588867188 316.3917541503906 234.49851989746094 315.1689453125 233.78211975097656 313.4958801269531 C 232.64846801757812 310.848388671875 232.77145385742188 308.0870361328125 234.1510772705078 305.21185302734375 C 235.5333251953125 302.3428039550781 237.74124145507812 300.2588195800781 240.7748260498047 298.9598388671875 C 242.1537322998047 298.369384765625 243.55271911621094 297.94439697265625 244.97178649902344 297.6848449707031 C 246.39697265625 297.4226989746094 247.82955932617188 297.31329345703125 249.26954650878906 297.35662841796875 L 249.03207397460938 305.0839538574219 C 247.9326934814453 304.7859802246094 246.55357360839844 304.67303466796875 244.89471435546875 304.74517822265625 C 243.2332305908203 304.8111877441406 241.86624145507812 305.07379150390625 240.79376220703125 305.5330505371094 C 239.72128295898438 305.9922790527344 238.96432495117188 306.6210021972656 238.52288818359375 307.419189453125 C 238.08143615722656 308.2174072265625 238.04310607910156 309.04241943359375 238.40786743164062 309.894287109375 C 238.7726287841797 310.7461242675781 239.56553649902344 311.30224609375 240.78660583496094 311.5626220703125 C 242.01380920410156 311.82037353515625 243.4029998779297 311.91448974609375 244.95419311523438 311.8449401855469 C 246.50888061523438 311.7666320800781 248.08412170410156 311.74481201171875 249.679931640625 311.7794494628906 C 251.27310180664062 311.8079833984375 252.7935028076172 312.20849609375 254.2411346435547 312.9810485839844 C 255.6887664794922 313.7535705566406 256.7720947265625 314.97943115234375 257.4911193847656 316.65863037109375 C 258.67462158203125 319.4225769042969 258.60675048828125 322.3126220703125 257.2874755859375 325.3287353515625 C 255.97084045410156 328.35101318359375 253.84169006347656 330.491943359375 250.9000244140625 331.7515563964844 C 248.69378662109375 332.6962585449219 246.5087432861328 333.00457763671875 244.3449249267578 332.676513671875 C 242.4524383544922 332.40631103515625 241.04888916015625 332.0500183105469 240.13426208496094 331.607666015625 L 239.5211639404297 331.29364013671875 L 240.92941284179688 325.05572509765625 ZM 292.6228332519531 313.823486328125 L 293.2414245605469 313.70416259765625 L 293.4977722167969 306.9534912109375 L 293.70867919921875 294.8445129394531 L 299.5892028808594 294.4437561035156 L 298.4058532714844 306.79119873046875 L 297.65533447265625 318.3728332519531 L 290.06402587890625 320.5700378417969 L 285.263916015625 309.6208801269531 L 284.8824462890625 308.9102783203125 L 283.93804931640625 321.0181579589844 L 276.5824279785156 323.1698913574219 L 271.64483642578125 312.24725341796875 L 266.18682861328125 301.42498779296875 L 272.1259765625 299.0575256347656 L 276.0599365234375 309.053466796875 L 279.2394104003906 316.4043884277344 L 279.84820556640625 316.2869873046875 L 281.3130798339844 302.07244873046875 L 279.65863037109375 298.8270263671875 L 285.51922607421875 296.4747314453125 L 289.4924621582031 306.46307373046875 L 292.6228332519531 313.823486328125 ZM 318.00482177734375 291.5489196777344 L 318.9252624511719 303.4775085449219 L 320.86309814453125 314.6024475097656 L 314.6338806152344 316.597900390625 L 313.7398376464844 304.958251953125 L 311.76568603515625 293.5456237792969 L 318.00482177734375 291.5489196777344 M 310.4080505371094 285.4216613769531 C 310.4080505371094 285.4216613769531 310.374267578125 285.1537780761719 310.3066711425781 284.6180419921875 C 310.2398986816406 284.0888977050781 310.5669250488281 283.3521728515625 311.2877197265625 282.4078369140625 C 312.0010681152344 281.4577331542969 312.9001159667969 280.91424560546875 313.9848327636719 280.77740478515625 C 315.0629577636719 280.641357421875 315.9235534667969 280.831787109375 316.566650390625 281.34869384765625 C 317.21636962890625 281.8647766113281 317.6155090332031 282.7114562988281 317.7640380859375 283.8887939453125 C 317.9117431640625 285.05950927734375 317.6318359375 286.1162109375 316.92425537109375 287.058837890625 C 316.2241516113281 288.0072937011719 315.3416442871094 288.5486755371094 314.2767333984375 288.68304443359375 C 313.21185302734375 288.8173828125 312.334228515625 288.5719909667969 311.6438903808594 287.9468078613281 C 310.9535217285156 287.3216552734375 310.5415954589844 286.47991943359375 310.4080505371094 285.4216613769531 ZM 346.40509033203125 301.00933837890625 C 346.22491455078125 298.8033447265625 345.9156188964844 297.3503723144531 345.4772033691406 296.650390625 C 345.0321350097656 295.9509582519531 344.10858154296875 295.65850830078125 342.7065734863281 295.77301025390625 C 341.3045959472656 295.88751220703125 339.7554931640625 296.57586669921875 338.05926513671875 297.838134765625 L 338.3441467285156 301.3265380859375 L 339.7905578613281 312.52593994140625 L 333.47955322265625 314.245361328125 L 333.09857177734375 302.57763671875 C 332.62286376953125 298.3088684082031 331.9614562988281 294.5101013183594 331.1143798828125 291.18133544921875 L 336.7933654785156 289.46337890625 C 337.1701354980469 291.2921142578125 337.4766845703125 293.07977294921875 337.71295166015625 294.8263244628906 C 338.1392822265625 294.1493835449219 338.6328430175781 293.47698974609375 339.19366455078125 292.8091125488281 C 339.747314453125 292.1351318359375 340.6466064453125 291.3526916503906 341.8915710449219 290.46173095703125 C 343.1304016113281 289.57794189453125 344.4209289550781 289.0812683105469 345.76312255859375 288.9716491699219 C 347.1053161621094 288.8620300292969 348.2732238769531 289.1980895996094 349.2668151855469 289.97979736328125 C 350.26092529296875 290.7681579589844 350.9455871582031 291.9028625488281 351.3207092285156 293.3839111328125 C 353.70867919921875 289.9447937011719 356.2581787109375 288.1145324707031 358.9691467285156 287.89312744140625 C 360.6568603515625 287.75531005859375 362.0418701171875 288.21075439453125 363.1241455078125 289.25946044921875 C 364.20697021484375 290.3148193359375 364.82763671875 291.8126220703125 364.986083984375 293.7528076171875 L 365.13494873046875 299.1385803222656 L 366.60089111328125 310.57720947265625 L 360.2400817871094 312.3006591796875 L 359.80047607421875 299.91534423828125 C 359.6203308105469 297.7093811035156 359.31103515625 296.2563781738281 358.8725891113281 295.5564270019531 C 358.4275207519531 294.85699462890625 357.5205993652344 294.56317138671875 356.1518249511719 294.6749572753906 C 354.7763977050781 294.78729248046875 353.2710876464844 295.4386291503906 351.6358947753906 296.6290283203125 L 351.73956298828125 300.2325439453125 L 353.20550537109375 311.6711730957031 L 346.84466552734375 313.3946533203125 L 346.40509033203125 301.00933837890625 ZM 393.11834716796875 298.2171630859375 C 393.0417175292969 296.0051574707031 392.8008117675781 294.539306640625 392.3956604003906 293.8195495605469 C 391.98382568359375 293.1000671386719 391.07501220703125 292.7646484375 389.669189453125 292.8133544921875 C 388.26336669921875 292.862060546875 386.6837158203125 293.47711181640625 384.93023681640625 294.6585388183594 L 385.0514221191406 298.15643310546875 L 385.9716491699219 309.41131591796875 L 379.5870361328125 310.8332214355469 L 379.75299072265625 299.1604919433594 C 379.4777526855469 294.8741149902344 378.9950256347656 291.04852294921875 378.3047790527344 287.6837463378906 L 384.0580139160156 286.2336730957031 C 384.3487243652344 288.07806396484375 384.5711669921875 289.87811279296875 384.72540283203125 291.6338195800781 C 385.1829528808594 290.9775695800781 385.70745849609375 290.32904052734375 386.2989807128906 289.68817138671875 C 386.8835754394531 289.0408630371094 387.81854248046875 288.3013916015625 389.1038513183594 287.4697265625 C 390.3827209472656 286.64495849609375 391.6950988769531 286.2092590332031 393.04095458984375 286.1626281738281 C 394.3868103027344 286.1159973144531 395.5376892089844 286.5063781738281 396.4935607910156 287.33380126953125 C 397.4496765136719 288.1678466796875 398.0804138183594 289.3333740234375 398.3857727050781 290.83038330078125 C 400.9322204589844 287.5068664550781 403.56463623046875 285.79803466796875 406.2829895019531 285.703857421875 C 407.9753112792969 285.6452331542969 409.33746337890625 286.1650695800781 410.36944580078125 287.2633056640625 C 411.4016418457031 288.3682556152344 411.9514465332031 289.8934631347656 412.01885986328125 291.8389587402344 L 411.9153137207031 297.22576904296875 L 412.8438415527344 308.72052001953125 L 406.4092712402344 310.1441650390625 L 406.55029296875 297.7518310546875 C 406.4736633300781 295.5398254394531 406.2327575683594 294.073974609375 405.8276062011719 293.3542175292969 C 405.415771484375 292.63470458984375 404.52362060546875 292.2987365722656 403.1510925292969 292.3462829589844 C 401.7719421386719 292.3940734863281 400.2377624511719 292.9742126464844 398.5486145019531 294.086669921875 L 398.4833679199219 297.69110107421875 L 399.4118957519531 309.18585205078125 L 392.9773254394531 310.6094970703125 L 393.11834716796875 298.2171630859375 ZM 432.0075378417969 285.1543273925781 L 431.4975891113281 297.1075134277344 L 432.09368896484375 308.38421630859375 L 425.67083740234375 309.62188720703125 L 426.1724853515625 297.958740234375 L 425.5746765136719 286.3920593261719 L 432.0075378417969 285.1543273925781 M 425.1964416503906 278.16412353515625 C 425.1964416503906 278.16412353515625 425.1948547363281 277.8941345214844 425.1916809082031 277.3541259765625 C 425.1885681152344 276.82080078125 425.6011657714844 276.1283874511719 426.4295349121094 275.27685546875 C 427.2511901855469 274.4186706542969 428.20867919921875 273.98638916015625 429.3019714355469 273.97998046875 C 430.3886413574219 273.9736022949219 431.2203674316406 274.2654113769531 431.7971496582031 274.8553771972656 C 432.380615234375 275.4453125 432.67584228515625 276.3335876464844 432.68280029296875 277.5202331542969 C 432.689697265625 278.7001953125 432.28564453125 279.7159118652344 431.47064208984375 280.5673828125 C 430.6623229980469 281.42547607421875 429.72149658203125 281.857666015625 428.648193359375 281.86395263671875 C 427.5748596191406 281.8702392578125 426.7328186035156 281.5218505859375 426.12200927734375 280.8187255859375 C 425.5111999511719 280.1156311035156 425.20269775390625 279.23077392578125 425.1964416503906 278.16412353515625 ZM 458.5742492675781 297.6613464355469 C 458.6098327636719 295.44830322265625 458.44354248046875 293.9720764160156 458.07537841796875 293.23272705078125 C 457.7005615234375 292.4932861328125 456.8099060058594 292.11224365234375 455.4034423828125 292.0896301269531 C 453.9969482421875 292.0670166015625 452.3881530761719 292.6011962890625 450.5770263671875 293.6922302246094 L 450.520751953125 297.1917724609375 L 450.8692932128906 308.47882080078125 L 444.42083740234375 309.5752868652344 L 445.1782531738281 297.92596435546875 C 445.1206359863281 293.6311340332031 444.8324279785156 289.7860107421875 444.3136291503906 286.39056396484375 L 450.13299560546875 285.2339782714844 C 450.329833984375 287.0907287597656 450.46075439453125 288.89971923828125 450.5257568359375 290.6610107421875 C 451.0159912109375 290.02880859375 451.5727233886719 289.4076843261719 452.1959533691406 288.7976379394531 C 452.8126220703125 288.1807861328125 453.7838439941406 287.4896545410156 455.10968017578125 286.7242126464844 C 456.4287109375 285.96533203125 457.8181457519531 285.5976257324219 459.2779541015625 285.62109375 C 460.7310791015625 285.64447021484375 461.9451599121094 286.2307434082031 462.9201354980469 287.3798828125 C 463.89501953125 288.53570556640625 464.3667907714844 290.0868225097656 464.3354797363281 292.03326416015625 L 463.9590148925781 297.40789794921875 L 464.3037109375 308.9349365234375 L 457.80523681640625 310.03057861328125 L 458.5742492675781 297.6613464355469 ZM 475.3084411621094 314.96295166015625 C 475.4359436035156 312.1524963378906 478.1599426269531 310.067138671875 483.48040771484375 308.7069091796875 C 482.2573547363281 308.0107421875 481.6690979003906 307.1498718261719 481.71563720703125 306.124267578125 C 481.734375 305.71136474609375 481.9130859375 305.3023681640625 482.2518005371094 304.8973083496094 C 482.5902099609375 304.4989013671875 483.07586669921875 304.0904846191406 483.7088317871094 303.6720886230469 L 483.72650146484375 303.282470703125 C 481.4222106933594 303.17791748046875 479.6197509765625 302.45550537109375 478.3191833496094 301.11517333984375 C 477.0185852050781 299.77484130859375 476.4167785644531 298.0357971191406 476.5137939453125 295.8979797363281 C 476.64007568359375 293.1141662597656 477.8854064941406 290.7448425292969 480.2497863769531 288.7900085449219 C 482.61444091796875 286.8284912109375 485.3451843261719 285.9179992675781 488.4420166015625 286.0585021972656 C 489.2411804199219 286.0947570800781 490.4027404785156 286.3076171875 491.9266357421875 286.69708251953125 C 493.44390869140625 287.0862731933594 494.9384460449219 287.3142395019531 496.4102478027344 287.3810119628906 L 500.0964660644531 287.5482482910156 L 499.427490234375 291.70220947265625 L 495.85113525390625 291.0994873046875 C 496.1285095214844 292.04638671875 496.2404479980469 293.10919189453125 496.1869812011719 294.2879943847656 C 496.1331787109375 295.47344970703125 495.8001403808594 296.6361999511719 495.1878356933594 297.77630615234375 C 494.5755310058594 298.9163818359375 493.86376953125 299.82171630859375 493.05255126953125 300.4923095703125 C 492.2349548339844 301.15594482421875 491.42449951171875 301.7364501953125 490.6211242675781 302.23388671875 C 489.8113708496094 302.724365234375 489.11773681640625 303.1567077636719 488.5401916503906 303.5309143066406 C 487.962646484375 303.9051208496094 487.6665954589844 304.2520446777344 487.652099609375 304.57171630859375 C 487.6246032714844 305.1777648925781 488.2400817871094 305.73291015625 489.4985046386719 306.23712158203125 C 492.8258056640625 307.7695007324219 495.0671081542969 309.0423889160156 496.22235107421875 310.0557861328125 C 497.3775939941406 311.0692138671875 497.9233703613281 312.27850341796875 497.8595886230469 313.6837463378906 C 497.7523193359375 316.0479736328125 496.4721374511719 317.9352111816406 494.01904296875 319.3454895019531 C 491.5726013183594 320.75604248046875 488.7010803222656 321.38653564453125 485.4044494628906 321.2369689941406 C 482.114501953125 321.08770751953125 479.59100341796875 320.4460144042969 477.83392333984375 319.3118896484375 C 476.07049560546875 318.1707763671875 475.2286682128906 316.72113037109375 475.3084411621094 314.96295166015625 M 490.707275390625 295.4808654785156 C 490.7782897949219 293.9158020019531 490.4774475097656 292.7509765625 489.8047180175781 291.9863586425781 C 489.13897705078125 291.21539306640625 488.0535583496094 290.7957763671875 486.5484313964844 290.72747802734375 C 483.6380920410156 290.5954284667969 482.11798095703125 291.9612731933594 481.988037109375 294.8249816894531 C 481.8584289550781 297.68206787109375 483.3453369140625 299.1809997558594 486.4488220214844 299.3218078613281 C 489.166015625 299.445068359375 490.58551025390625 298.1647644042969 490.707275390625 295.4808654785156 M 491.5933837890625 314.12017822265625 C 491.6196594238281 313.540771484375 491.3409729003906 312.99090576171875 490.7572937011719 312.4705810546875 C 490.16693115234375 311.949951171875 489.1044921875 311.31781005859375 487.5699768066406 310.57415771484375 C 485.21002197265625 311.1077575683594 483.5782775878906 311.62432861328125 482.6746826171875 312.1239013671875 C 481.77081298828125 312.630126953125 481.3007507324219 313.2828063964844 481.2644958496094 314.0820007324219 C 481.2282409667969 314.88116455078125 481.63848876953125 315.547119140625 482.4952087402344 316.079833984375 C 483.3516540527344 316.61920166015625 484.5623779296875 316.92437744140625 486.12744140625 316.9953918457031 C 487.6925048828125 317.06640625 488.9843444824219 316.834716796875 490.0029296875 316.3003234863281 C 491.021240234375 315.7726135253906 491.5513916015625 315.0458984375 491.5933837890625 314.12017822265625 ZM 546.1428833007812 281.9952392578125 C 549.1923217773438 282.3199768066406 551.5327758789062 283.447509765625 553.1641845703125 285.3777770996094 C 554.7963256835938 287.3014221191406 555.451416015625 289.77471923828125 555.1295166015625 292.797607421875 C 554.8076171875 295.8205261230469 553.3854370117188 298.2837829589844 550.863037109375 300.1873779296875 C 548.340576171875 302.0909423828125 545.4253540039062 302.8666076660156 542.117431640625 302.51434326171875 L 539.4027709960938 302.2252502441406 L 538.6681518554688 314.5065002441406 L 532.2742919921875 313.82562255859375 L 534.0857543945312 302.2926025390625 L 535.781494140625 280.8918151855469 L 546.1428833007812 281.9952392578125 M 543.9090576171875 286.634765625 L 541.572265625 286.38592529296875 L 540.0343627929688 297.6162109375 L 543.2760620117188 297.96142578125 C 544.8670654296875 298.130859375 546.1561889648438 297.73516845703125 547.1434936523438 296.7742919921875 C 548.130126953125 295.820068359375 548.726806640625 294.3717956542969 548.9336547851562 292.429443359375 C 549.3029174804688 288.9623718261719 547.6279907226562 287.03082275390625 543.9090576171875 286.634765625 ZM 563.0354614257812 307.2561950683594 C 563.6865844726562 303.2082214355469 565.330810546875 299.9547119140625 567.9680786132812 297.49566650390625 C 570.5988159179688 295.0355529785156 573.3754272460938 294.04052734375 576.2978515625 294.5106201171875 C 579.2202758789062 294.9806823730469 581.3419189453125 296.2942810058594 582.6627807617188 298.451416015625 C 583.983642578125 300.6085510253906 584.3926391601562 303.2503662109375 583.8897705078125 306.3768310546875 C 583.218505859375 310.54986572265625 581.6107788085938 313.8497619628906 579.06640625 316.2764892578125 C 576.5220947265625 318.7032165527344 573.6537475585938 319.65985107421875 570.46142578125 319.1463928222656 C 567.841796875 318.7250061035156 565.8284912109375 317.3883361816406 564.421630859375 315.1363220214844 C 563.0147705078125 312.88433837890625 562.5526733398438 310.2575988769531 563.0354614257812 307.2561950683594 M 578.1908569335938 307.9923095703125 C 578.927734375 303.41119384765625 577.7296752929688 300.8686828613281 574.5966186523438 300.3647155761719 C 571.3450317382812 299.84173583984375 569.3735961914062 301.729248046875 568.6822509765625 306.02734375 C 568.3223266601562 308.2652587890625 568.4981689453125 310.08966064453125 569.2097778320312 311.5005798339844 C 569.92138671875 312.9114990234375 571.027587890625 313.7376403808594 572.5283203125 313.9790344238281 C 574.0289916992188 314.2204284667969 575.2603149414062 313.82763671875 576.2222900390625 312.80072021484375 C 577.1842651367188 311.7737731933594 577.8404541015625 310.1709899902344 578.1908569335938 307.9923095703125 ZM 593.9877319335938 312.57098388671875 C 595.0233764648438 308.6039733886719 596.9715576171875 305.5228271484375 599.8321533203125 303.32757568359375 C 602.6863403320312 301.1306457519531 605.5454711914062 300.4060363769531 608.4094848632812 301.15374755859375 C 611.2734985351562 301.9014587402344 613.2595825195312 303.4121398925781 614.3678588867188 305.6858215332031 C 615.4761352539062 307.95953369140625 615.6303100585938 310.62835693359375 614.8303833007812 313.69232177734375 C 613.7626953125 317.78192138671875 611.8463745117188 320.9127197265625 609.0813598632812 323.0846862792969 C 606.31640625 325.2566833496094 603.3696899414062 325.9342956542969 600.2412109375 325.1175537109375 C 597.6738891601562 324.4472961425781 595.7978515625 322.92401123046875 594.613037109375 320.5476379394531 C 593.42822265625 318.1712951660156 593.2197875976562 315.5124206542969 593.9877319335938 312.57098388671875 M 609.0030517578125 314.7547607421875 C 610.1751098632812 310.2652282714844 609.2259521484375 307.61968994140625 606.155517578125 306.8180847167969 C 602.968994140625 305.9861755371094 600.8258666992188 307.67626953125 599.7261962890625 311.888427734375 C 599.1536254882812 314.08160400390625 599.1539916992188 315.9144592285156 599.727294921875 317.38702392578125 C 600.300537109375 318.8595886230469 601.3225708007812 319.7878723144531 602.7932739257812 320.17181396484375 C 604.2639770507812 320.5557861328125 605.5272827148438 320.28271484375 606.5831298828125 319.35260009765625 C 607.6389770507812 318.4224853515625 608.4456176757812 316.8898620605469 609.0030517578125 314.7547607421875 ZM 645.988037109375 302.6962890625 L 633.3599853515625 323.8983154296875 L 628.2864379882812 333.986328125 L 622.0496215820312 331.8573913574219 L 628.2682495117188 321.97711181640625 L 639.6640625 300.51837158203125 L 645.988037109375 302.6962890625 Z" transform="matrix(1, 0, 0, 1, -220.08741760253906, -250.50662231445312)" style="fill: rgb(0, 132, 255); white-space: pre; color: rgb(51, 51, 51);"/></g></svg>